<?xml version="1.0" encoding="utf-8"?>
<!-- Generator: Adobe Illustrator 27.5.0, SVG Export Plug-In . SVG Version: 6.00 Build 0)  -->
<svg version="1.1" xmlns="http://www.w3.org/2000/svg" xmlns:xlink="http://www.w3.org/1999/xlink" x="0px" y="0px"
	 viewBox="0 0 750 500" style="enable-background:new 0 0 750 500;" xml:space="preserve">
<g id="BACKGROUND">
</g>
<g id="OBJECTS">
	<g>
		<path style="fill:none;stroke:#000000;stroke-width:1.9367;stroke-linecap:round;stroke-miterlimit:10;" d="M38.594,105.404
			c6.172-0.54,12.343-1.08,18.515-1.621"/>
		<path style="fill:none;stroke:#000000;stroke-width:1.9367;stroke-linecap:round;stroke-miterlimit:10;" d="M38.594,105.404
			c0.227-19.674,1.199-41.314,14.575-55.742c7.271-7.842,17.787-12.578,28.478-12.825c3.959-0.091,7.984,0.423,11.616,2.002
			c9.173,3.991,13.203,10.104,15.67,19.799c2.467,9.695,3.105,19.914,6.984,29.135c0.912,2.169,2.515,4.587,4.864,4.471
			c1.285-0.063,2.399-0.915,3.255-1.875c4.887-5.48,3.478-13.846,2.834-21.16c-0.644-7.314,2.22-12.715,9.324-14.57"/>
		<path style="fill:none;stroke:#000000;stroke-width:1.9113;stroke-linecap:round;stroke-miterlimit:10;" d="M57.369,103.78
			c1.175-12.15,2.395-24.503,6.626-35.734c2.076-5.511,5.261-11.059,10.281-12.977c5.496-2.099,11.758,0.933,15.641,5.842
			c3.882,4.909,5.832,11.355,7.373,17.698c1.541,6.343,2.805,12.874,5.646,18.62c2.84,5.747,7.627,10.725,13.4,11.491
			c5.712,0.758,11.412-2.86,14.748-8.135c3.336-5.275,4.566-11.953,4.578-18.454c0.011-6.294-3.837-16.613,2.996-18.053"/>
		<path style="fill:none;stroke:#000000;stroke-width:1.9367;stroke-linecap:round;stroke-miterlimit:10;" d="M140.482,68.459
			c-1.98-5.996-3.694-12.127-5.105-18.472c-0.528-2.374,1.648-4.472,4-3.851c5.039,1.329,10.555,3.252,15.454,4.8
			c2.027,0.641,2.918,3.03,1.773,4.821c-3.096,4.847-6.985,9.039-10.464,13.616C144.565,71.448,141.299,70.932,140.482,68.459z"/>
	</g>
	<g>
		<path style="fill:none;stroke:#000000;stroke-width:1.9367;stroke-linecap:round;stroke-miterlimit:10;" d="M110.908,145.833"/>
		<path style="fill:none;stroke:#000000;stroke-width:1.9367;stroke-linecap:round;stroke-miterlimit:10;" d="M50.272,164.074
			c0.215,1.455,1.891,2.146,3.083,1.284c9.436-6.822,20.875-10.855,32.509-11.41c12.115-0.578,24.379,2.62,34.85,8.986
			c0.884,0.538,1.164,1.695,0.653,2.595c-1.215,2.138-2.722,4.78-3.434,6.028c-0.179,0.313,0.06,0.697,0.42,0.681l24.041-0.705
			c0.21-0.006,0.368-0.188,0.342-0.396c-0.873-6.836-1.589-14.531-2.627-21.311c-0.035-0.23-0.249-0.379-0.48-0.351
			c-2.582,0.317-6.814,3.691-7.681,4.401c-0.09,0.074-0.212,0.051-0.278-0.045c-9.09-13.18-23.5-22.578-39.228-25.576
			c-15.692-2.99-32.507,0.426-45.793,9.294c-0.164,0.11-0.251,0.306-0.222,0.502L50.272,164.074z"/>
	</g>
	<g>
		<path style="fill:none;stroke:#000000;stroke-width:1.9367;stroke-linecap:round;stroke-miterlimit:10;" d="M50.054,241.603"/>
		<path style="fill:none;stroke:#000000;stroke-width:1.9367;stroke-linecap:round;stroke-miterlimit:10;" d="M65.397,239.133
			c-3.464-5.551-6.245-11.528-8.261-17.753c-1.062-3.279-1.918-6.66-2.029-10.105c-0.059-1.83,0.112-3.731,0.999-5.333
			c0.887-1.602,2.627-2.835,4.451-2.674c1.959,0.174,3.453,1.818,4.484,3.493c4.913,7.986,3.838,18.498,8.382,26.699
			c0.432,0.78,0.935,1.556,1.677,2.05c0.742,0.494,1.78,0.639,2.516,0.135c0.464-0.317,0.743-0.835,0.983-1.344
			c1.873-3.98,2.28-8.467,2.718-12.844c0.438-4.377,0.821-22.739,13.545-19.553c4.642,1.162,3.562,12.616,2.189,17.26
			c-1.373,4.643-3.025,9.33-2.869,14.17c0.073,2.272,1.064,5.035,3.325,5.268c1.635,0.169,3.029-1.125,4.074-2.394
			c5.435-6.598,8.123-15.007,12.709-22.221c1.174-1.846,2.581-3.701,4.613-4.512c1.271-0.507,2.686-0.556,4.045-0.395
			c1.636,0.194,3.372,0.782,4.256,2.172c0.972,1.528,0.622,3.53,0.065,5.253c-3.052,9.433-10.994,16.418-15.595,25.2"/>
		<path style="fill:none;stroke:#000000;stroke-width:1.9367;stroke-linecap:round;stroke-miterlimit:10;" d="M111.21,235.833
			c0.001,1.449-0.083,2.898-0.251,4.337c-0.167,1.432,1.432,2.368,2.583,1.5c1.539-1.161,3.102-2.289,4.688-3.385"/>
	</g>
	<g>
		<path style="fill:none;stroke:#000000;stroke-width:1.9367;stroke-linecap:round;stroke-miterlimit:10;" d="M216.934,96.753
			c-4.984-7.568-7.473-16.751-6.993-25.8c0.299-5.645,1.939-11.576,6.194-15.296c4.256-3.721,11.617-4.168,15.187,0.215
			c3.092,3.796,2.339,9.396,0.75,14.028c-0.252,0.734-0.534,1.484-1.07,2.045c-1.258,1.317-3.576,1.081-4.94-0.125
			c-1.364-1.206-1.93-3.088-2.1-4.901c-0.704-7.499,4.404-14.541,10.771-18.566c5.365-3.392,12.16-5.149,18.145-3.034
			c6.088,2.152,10.469,8.419,10.399,14.876c-0.08,7.332-5.16,13.532-9.974,19.063c-3.622,4.162-7.243,8.324-10.865,12.486"/>
		<path style="fill:none;stroke:#000000;stroke-width:1.9367;stroke-linecap:round;stroke-miterlimit:10;" d="M214.465,100.36
			c2.03-2.446,4.439-4.576,7.114-6.292"/>
		<path style="fill:none;stroke:#000000;stroke-width:1.9367;stroke-linecap:round;stroke-miterlimit:10;" d="M242.437,86.065
			c0.18,1.972,0.118,3.965-0.005,5.849c1.963-0.75,4.101-1.035,6.192-0.828"/>
	</g>
	<path style="fill:none;stroke:#000000;stroke-width:1.9367;stroke-linecap:round;stroke-miterlimit:10;" d="M204.348,119.671
		c12.861-2.243,42.343-4.68,54.929-4.903c1.312-0.023,1.681,1.788,0.468,2.29c-15.252,6.308-30.47,12.773-44.96,20.634
		c-1.164,0.632-0.57,2.413,0.74,2.222c14.103-2.064,28.315-3.379,42.557-3.938"/>
	<path style="fill:none;stroke:#000000;stroke-width:1.9367;stroke-linecap:round;stroke-miterlimit:10;" d="M251.184,132.927
		c2.328,1.008,4.656,2.016,7.008,2.761c-1.659,2.036-3.317,4.073-4.976,6.109"/>
	<g>
		<path style="fill:none;stroke:#000000;stroke-width:1.9367;stroke-linecap:round;stroke-miterlimit:10;" d="M211.204,184.812
			c-0.027-4.649-1.484-9.182-1.735-13.824c-0.251-4.642,1.094-9.869,5.096-12.234c0.328-0.194,0.688-0.37,1.069-0.359
			c0.404,0.011,0.77,0.23,1.101,0.462c2.958,2.075,4.585,5.598,5.386,9.121c0.801,3.523,0.907,7.167,1.544,10.724
			c0.267,1.494,0.66,3.036,1.656,4.181c0.996,1.145,2.76,1.754,4.083,1.011c0.843-0.474,1.347-1.379,1.698-2.28
			c2.282-5.851-0.224-12.522,0.953-18.691c0.319-1.673,0.954-3.36,2.217-4.503c1.263-1.143,3.266-1.584,4.709-0.68
			c1.648,1.032,1.981,3.249,2.15,5.186c0.558,6.377,1.117,12.754,1.675,19.131"/>
		<path style="fill:none;stroke:#000000;stroke-width:1.9367;stroke-linecap:round;stroke-miterlimit:10;" d="M239.712,179.033
			c0.891,1.273,1.856,2.494,2.892,3.583c1.191-1.362,2.433-2.679,3.722-3.949"/>
	</g>
	<g>
		<path style="fill:none;stroke:#000000;stroke-width:1.9367;stroke-linecap:round;stroke-miterlimit:10;" d="M169.17,242.526
			c1.125-2.065,2.394-4.051,3.797-5.938"/>
		<path style="fill:none;stroke:#000000;stroke-width:1.9367;stroke-linecap:round;stroke-miterlimit:10;" d="M175.782,233.215
			c1.965-2.007,4.04-3.907,6.212-5.688"/>
		<path style="fill:none;stroke:#000000;stroke-width:1.9367;stroke-linecap:round;stroke-miterlimit:10;" d="M187.167,224.889
			c2.076-1.887,4.709-3.153,7.479-3.597"/>
		<path style="fill:none;stroke:#000000;stroke-width:1.9367;stroke-linecap:round;stroke-miterlimit:10;" d="M202.001,220.118
			c2.253-0.838,4.689-1.181,7.085-0.995"/>
		<path style="fill:none;stroke:#000000;stroke-width:1.9367;stroke-linecap:round;stroke-miterlimit:10;" d="M216.536,219.029
			c1.981,0.434,3.962,0.868,5.942,1.303"/>
		<path style="fill:none;stroke:#000000;stroke-width:1.9367;stroke-linecap:round;stroke-miterlimit:10;" d="M229.205,222.595
			c1.382,0.864,2.764,1.728,4.145,2.592"/>
		<path style="fill:none;stroke:#000000;stroke-width:1.9367;stroke-linecap:round;stroke-miterlimit:10;" d="M238.133,229.624
			c1.091,1.026,2.183,2.052,3.274,3.078"/>
		<path style="fill:none;stroke:#000000;stroke-width:1.9367;stroke-linecap:round;stroke-miterlimit:10;" d="M244.27,236.342
			c0.921,1.103,1.841,2.205,4.218,5.922C248.999,243.298,249.51,244.331,244.27,236.342z"/>
		<path style="fill:none;stroke:#000000;stroke-width:1.9367;stroke-linecap:round;stroke-miterlimit:10;" d="M245.481,246.033
			c1.657,1.079,3.314,2.157,5.48,3.123c1.152-2.046,2.305-4.092,3.457-6.138c0.091-0.161,0.237-0.348,0.416-0.303
			C255.015,242.76,254.844,243.121,245.481,246.033z"/>
	</g>
	<g>
		<path style="fill:none;stroke:#000000;stroke-width:1.9367;stroke-linecap:round;stroke-miterlimit:10;" d="M302.58,207.263
			c-2.69-9.766-3.699-19.991-2.981-30.094c0.26-3.66,4.199-5.84,7.417-4.078l0,0c2.563,1.403,4.726,3.441,6.271,5.921
			c5.177,8.313,6.568,18.881,3.685,28.245c-0.327,1.062-1.137,1.959-2.2,2.284c-2.713,0.828-4.155-2.357-4.42-4.872
			c-1.117-10.59,3.498-21.656,12.017-28.128c1.8-1.367,4.012-2.173,6.267-2.01c6.133,0.444,7.791,6.643,8.52,11.867
			c0.813,5.829,1.4,11.805,0.176,17.562c-0.591,2.78-1.668,5.518-3.214,7.906c-2.319,3.58-7.864,1.948-7.807-2.316
			c0.079-5.927,2.08-11.842,5.775-16.486c5.468-6.872,14.481-10.756,23.231-10.011"/>
		<path style="fill:none;stroke:#000000;stroke-width:1.9367;stroke-linecap:round;stroke-miterlimit:10;" d="M346.98,176.199
			c3.021,2.126,6.3,4.016,9.766,5.63c0.751,0.35,0.843,1.152,0.185,1.536c-2.846,1.662-7.457,3.345-9.441,5.668"/>
	</g>
	<g>
		<path style="fill:none;stroke:#000000;stroke-width:1.9367;stroke-linecap:round;stroke-miterlimit:10;" d="M317.485,129.543
			c2.474-2.438,6.077-3.68,9.527-3.283c0.365,3.801-0.309,7.801-2.469,10.95c-2.159,3.15-5.943,5.296-9.744,4.933
			c-6.717-0.641-10.649-8.849-8.973-15.385c1.335-5.208,5.426-9.623,10.517-11.35c5.091-1.727,11.024-0.713,15.253,2.607
			c10.329,8.111,8.146,25.748,18.132,34.278c4.638,3.962,11.517,5.092,17.179,2.824c5.662-2.269,9.857-7.837,10.475-13.905"/>
		<path style="fill:none;stroke:#000000;stroke-width:1.9367;stroke-linecap:round;stroke-miterlimit:10;" d="M372.716,144.454
			c1.705-0.743,3.213-1.843,4.719-3.185c0.574,1.717,1.573,3.332,2.891,4.675"/>
	</g>
	<g>
		<path style="fill:none;stroke:#000000;stroke-width:1.9367;stroke-linecap:round;stroke-miterlimit:10;" d="M294.726,59.398
			c2.78,0.746,5.699-0.32,8.326-1.495c2.627-1.175,5.351-2.507,8.222-2.307c2.871,0.2,5.813,2.65,5.35,5.491
			c-0.249,1.531-1.38,2.75-2.497,3.826c-2.979,2.874-6.297,5.539-8.312,9.155s-2.357,8.587,0.5,11.583
			c2.486,2.608,6.743,2.918,10.034,1.452c3.291-1.466,5.729-4.381,7.532-7.5c1.901-3.287,3.276-6.957,5.907-9.694
			c2.631-2.738,7.13-4.245,10.249-2.08c2.56,1.777,3.23,5.284,3.095,8.398c-0.135,3.114-0.848,6.267-0.183,9.312
			c1.008,4.615,5.47,8.23,10.194,8.258c4.723,0.028,9.228-3.535,10.29-8.138c0.91-3.946-0.505-8.01-0.877-12.042
			c-0.372-4.032,0.944-8.92,4.808-10.132c2.409-0.756,5.039,0.217,7.141,1.615c3.678,2.446,6.336,6.11,9.45,9.243
			c3.114,3.132,7.125,5.893,11.537,5.677c5.457-0.267,9.882-5.377,10.494-10.806c0.612-5.429-1.966-10.843-5.732-14.8
			c-3.766-3.958-8.625-6.679-13.485-9.173"/>
		<path style="fill:none;stroke:#000000;stroke-width:1.9367;stroke-linecap:round;stroke-miterlimit:10;" d="M388.194,52.837
			c-0.448-2.869-1.597-5.624-3.097-8.06c-0.237-0.386,0.086-0.865,0.535-0.801c2.981,0.426,6.138-0.409,8.489-2.299"/>
	</g>
	<g>
		<path style="fill:none;stroke:#000000;stroke-width:1.9367;stroke-linecap:round;stroke-miterlimit:10;" d="M334.624,324.172
			c-3.725-25.164-7.752-35.48-11.735-37.929c-2.347-1.443-5.235-1.611-7.989-1.706c-8.365-0.29-16.74-0.285-25.417,0.108
			c-2.73,0.124-4.929,2.329-4.978,5.061c-0.039,2.158,0.015,4.355,0.161,6.635c0.171,2.676,2.36,4.784,5.04,4.852
			c7.039,0.177,14.061,0.726,20.993,1.668c2.595,0.353,5.175,2.739,5.766,5.291c0.69,2.981,1.588,5.916,3.709,17.771"/>
		<path style="fill:none;stroke:#000000;stroke-width:2.2863;stroke-linecap:round;stroke-miterlimit:10;" d="M316.468,326.473
			c7.957-1.322,16.088-2.026,24.394-2.087c2.342-0.017,4.293,1.464,4.396,3.37l0.078,1.436c0.067,1.245-0.706,2.389-1.958,3.103
			c-2.969,1.693-6.277,5.737-8.549,8.863c-1.445,1.987-4.784,2.341-6.785,0.705c-3.63-2.968-8.977-7.043-12.757-8.629
			c-1.47-0.617-2.333-1.913-2.242-3.258c0.007-0.107,0.015-0.213,0.023-0.32C313.185,328.099,314.59,326.785,316.468,326.473z"/>
	</g>
	<g>
		<path style="fill:none;stroke:#000000;stroke-width:1.9367;stroke-linecap:round;stroke-miterlimit:10;" d="M452.263,88.808
			c-1.444-7.647-1.526-15.549-0.242-23.225c0.356-2.13,1.037-4.533,2.994-5.446c2.748-1.281,5.718,1.275,7.422,3.783
			c5.524,8.129,7.76,18.426,6.103,28.114c-0.264,1.544-1.008,3.417-2.573,3.479c-1.812,0.073-2.572-2.261-2.742-4.067
			c-0.542-5.766-0.851-11.673,0.656-17.265c1.507-5.592,5.116-10.892,10.471-13.096c4.895-2.014,10.53-1.237,15.568-2.859
			c6.68-2.15,11.633-8.821,11.759-15.838"/>
		<path style="fill:none;stroke:#000000;stroke-width:1.9367;stroke-linecap:round;stroke-miterlimit:10;" d="M451.049,73.735
			c-1.185,2.559-2.699,5.609-3.884,8.169"/>
		<path style="fill:none;stroke:#000000;stroke-width:1.9367;stroke-linecap:round;stroke-miterlimit:10;" d="M497.556,47.257
			c1.747-1.467,3.167-3.508,4.012-5.647c0.846,2.094,2.26,3.841,3.964,4.9"/>
		<path style="fill:none;stroke:#000000;stroke-width:1.9367;stroke-linecap:round;stroke-miterlimit:10;" d="M451.129,74.03
			c1.338,2.283,2.937,4.414,4.754,6.337"/>
		<path style="fill:none;stroke:#000000;stroke-width:1.9367;stroke-linecap:round;stroke-miterlimit:10;" d="M447.926,85.85
			c1.464-2.058,2.646-4.317,3.592-6.673c0.969,2.066,2.466,3.882,4.31,5.227"/>
		<path style="fill:none;stroke:#000000;stroke-width:1.9367;stroke-linecap:round;stroke-miterlimit:10;" d="M449.51,88.352
			c0.771-1.343,1.542-2.687,2.313-4.03c0.866,1.334,1.868,2.579,2.987,3.71"/>
	</g>
	<path style="fill:none;stroke:#000000;stroke-width:1.9367;stroke-linecap:round;stroke-miterlimit:10;" d="M438.491,141.746
		c-6.415-0.246-11.56-7.252-10.098-13.503c1.462-6.251,8.904-10.257,15.005-8.26c6.101,1.997,9.743,9.368,7.858,15.504
		c-0.73,2.376-2.929,4.834-5.297,4.081c-2.352-0.749-2.743-3.996-1.976-6.342c1.234-3.776,4.382-6.871,8.179-8.041
		c2.8-0.862,5.798-0.713,8.722-0.523c2.923,0.19,5.907,0.407,8.742-0.331c2.835-0.738,5.549-2.626,6.453-5.413
		c0.904-2.786-0.647-6.362-3.519-6.941c-3.503-0.706-6.509,3.421-5.893,6.94c0.616,3.52,3.602,6.142,6.715,7.897
		c3.112,1.755,6.563,2.976,9.323,5.245c2.76,2.269,4.734,6.058,3.506,9.414"/>
	<path style="fill:none;stroke:#000000;stroke-width:1.9367;stroke-linecap:round;stroke-miterlimit:10;" d="M484.343,137.742
		c0.785,1.209,1.366,2.551,1.562,3.899c1.055-1.121,2.447-1.919,3.948-2.262"/>
	<path style="fill:none;stroke:#000000;stroke-width:1.9367;stroke-linecap:round;stroke-miterlimit:10;" d="M438.705,141.604
		c-0.074-0.725,0.321-1.489,0.979-1.801c0.658-0.312,1.533-0.112,1.952,0.484c0.361,0.515,0.354,1.218,0.134,1.808
		c-0.205,0.551-0.599,1.049-1.135,1.289c-0.536,0.24-1.218,0.184-1.653-0.213C438.549,142.775,438.449,142.033,438.705,141.604z"/>
	<path style="fill:none;stroke:#000000;stroke-width:1.9367;stroke-linecap:round;stroke-miterlimit:10;" d="M438.705,141.604
		c-0.074-0.725,0.321-1.489,0.979-1.801c0.658-0.312,1.533-0.112,1.952,0.484c0.361,0.515,0.354,1.218,0.134,1.808
		c-0.205,0.551-0.599,1.049-1.135,1.289c-0.536,0.24-1.218,0.184-1.653-0.213C438.549,142.775,438.449,142.033,438.705,141.604z"/>
	<g>
		<path style="fill:none;stroke:#000000;stroke-width:1.9367;stroke-linecap:round;stroke-miterlimit:10;" d="M466.14,189.11
			c1.415-1.207,2.537-2.698,3.587-4.42c1.049,1.475,2.475,2.73,4.127,3.631"/>
		<path style="fill:none;stroke:#000000;stroke-width:1.9367;stroke-linecap:round;stroke-miterlimit:10;" d="M413.271,215.783
			c-0.408-9.704-0.815-19.409-1.445-28.708c5.685-0.541,11.42-0.564,17.485-0.086c0.488,9.356,0.976,18.712,1.313,28.121
			c3.572-0.338,7.144-0.675,10.822-0.954c-0.263-9.634-0.755-24.327,0-29.039c4.461,0.03,11.396,0.061,15.857,0.091
			c0.084,9.474,0.168,18.948,0.149,27.701c4.202-0.009,8.404-0.017,12.606-0.026c-0.356-9.19-0.292-18.397,0.193-27.582"/>
	</g>
	<g>
		<path style="fill:none;stroke:#000000;stroke-width:1.9367;stroke-linecap:round;stroke-miterlimit:10;" d="M390.623,279.253
			c-3.205-7.961-2.16-17.494,2.692-24.572c2.484-3.623,6.077-6.695,10.378-7.593c5.333-1.114,11.018,1.387,14.568,5.519
			c3.551,4.132,5.167,9.656,5.439,15.098c0.217,4.319-0.513,9.011-3.554,12.085c-3.041,3.075-8.919,3.47-11.346-0.109
			c-1.861-2.745-1.025-6.592,0.876-9.31c3.415-4.884,9.488-7.13,15.328-8.313c5.84-1.184,11.93-1.62,17.347-4.103
			c5.417-2.483,10.159-7.759,9.686-13.699"/>
		<path style="fill:none;stroke:#000000;stroke-width:2.3637;stroke-linecap:round;stroke-miterlimit:10;" d="M447.684,247.439
			c1.159-0.744,1.931-1.833,2.694-3.123c0.711-1.201,2.396-1.363,3.336-0.33c0.622,0.684,1.275,1.292,1.721,1.819"/>
	</g>
	<g>
		<path style="fill:none;stroke:#000000;stroke-width:1.9367;stroke-linecap:round;stroke-miterlimit:10;" d="M49.279,280.068
			c3.54-3.385,5.99-7.73,9.11-11.506c3.12-3.776,7.322-7.146,12.215-7.357c1.513-0.065,3.276,0.145,4.184,1.357
			c3.723,4.969-7.776,16.034-9.588,19.802c-1.417,2.946-2.54,6.229-1.936,9.442c0.12,0.638,0.336,1.308,0.852,1.703
			c1.111,0.85,2.673-0.077,3.727-0.997c4.807-4.197,9.224-8.84,13.175-13.85c2.557-3.243,4.964-6.685,8.226-9.219
			c3.261-2.534,7.634-4.059,11.572-2.812"/>
		<path style="fill:none;stroke:#000000;stroke-width:1.9367;stroke-linecap:round;stroke-miterlimit:10;" d="M96.777,262.768
			c1.757,1.714,3.89,3.04,6.283,3.879c0.168,0.059,0.121,0.292-0.056,0.285c-2.39-0.094-4.811,0.58-6.793,1.923"/>
	</g>
	<g>
		<path style="fill:none;stroke:#000000;stroke-width:2.3901;stroke-linecap:round;stroke-miterlimit:10;" d="M57.992,410.858
			c-9.535-8.051-13.381-22.198-9.237-33.969c2.056-5.839,5.994-11.106,11.353-14.204c5.359-3.098,12.16-3.844,17.856-1.422
			c8.246,3.506,12.764,12.862,13.168,21.813c0.403,8.951-2.534,17.677-5.434,26.155"/>
		<path style="fill:none;stroke:#000000;stroke-width:2.3901;stroke-linecap:round;stroke-miterlimit:10;" d="M91.45,403.493
			c-2.448,1.784-4.502,4.104-6.018,6.842c-0.106,0.192-0.381,0.087-0.335-0.128c0.608-2.889,0.289-5.973-0.935-8.662"/>
	</g>
	<g>
		<path style="fill:none;stroke:#000000;stroke-width:1.9367;stroke-linecap:round;stroke-miterlimit:10;" d="M185.396,307.758
			c-9.633-4.121-16.926-13.302-18.76-23.617c-0.73-4.106-0.597-8.526,1.382-12.197c2.22-4.121,6.505-6.794,10.974-8.187
			c6.619-2.063,14.296-1.516,19.871,2.604c5.576,4.12,8.347,12.15,5.4,18.425c-0.921,1.961-2.857,3.88-4.959,3.354
			c-2.28-0.57-2.95-3.44-3.125-5.784c-0.366-4.922-0.423-9.979,1.131-14.663c1.554-4.684,4.975-8.984,9.683-10.463
			c7.047-2.213,14.97,2.874,17.509,9.81c2.539,6.936,0.582,14.879-3.365,21.123c-3.947,6.243-9.676,11.117-15.314,15.888"/>
		<path style="fill:none;stroke:#000000;stroke-width:1.9367;stroke-linecap:round;stroke-miterlimit:10;" d="M181.92,300.076
			c1,3.084,2.758,5.887,5.197,8.226c0.171,0.164-0.056,0.429-0.277,0.325c-2.974-1.41-6.541-1.881-10.031-1.282"/>
	</g>
	<g>
		<path style="fill:none;stroke:#000000;stroke-width:1.9367;stroke-linecap:round;stroke-miterlimit:10;" d="M131.569,398.616
			c18.534-9.253,37.524-18.845,51.535-34.074c0.145-0.157-0.023-0.412-0.224-0.341c-15.583,5.435-30.833,11.824-45.635,19.122
			c-0.189,0.093-0.38-0.126-0.261-0.3c9.526-13.878,23.126-24.927,38.667-31.396"/>
		<path style="fill:none;stroke:#000000;stroke-width:2.3901;stroke-linecap:round;stroke-miterlimit:10;" d="M131.059,394.845
			c0.571,2.773,1.566,5.458,2.94,7.933"/>
		<path style="fill:none;stroke:#000000;stroke-width:2.3901;stroke-linecap:round;stroke-miterlimit:10;" d="M133.971,393.992
			c0.375,2.738,1.373,5.388,2.897,7.693"/>
		<path style="fill:none;stroke:#000000;stroke-width:2.3901;stroke-linecap:round;stroke-miterlimit:10;" d="M137.247,391.739
			c0.38,2.85,1.281,5.63,2.643,8.162"/>
		<path style="fill:none;stroke:#000000;stroke-width:1.9367;stroke-linecap:round;stroke-miterlimit:10;" d="M170.192,350.696
			c2.418,0.421,4.927,0.311,7.375-0.348c0.172-0.046,0.265,0.173,0.115,0.267c-2.025,1.273-3.642,3.196-4.519,5.424"/>
	</g>
	<g>
		<path style="fill:none;stroke:#000000;stroke-width:1.9367;stroke-linecap:round;stroke-miterlimit:10;" d="M50.284,340.638
			c-3.591-1.805-4.953-6.799-3.145-10.389c1.809-3.59,6.23-5.484,10.186-4.772c3.956,0.712,7.29,3.742,8.856,7.444
			c1.242,2.938,0.763,7.324-2.345,8.041c-1.814,0.418-3.724-0.784-4.574-2.44c-0.849-1.656-0.816-3.637-0.427-5.458
			c1.032-4.835,4.554-9.068,9.121-10.96c2.971-1.231,6.242-1.497,9.347-2.334c3.272-0.883,6.368-2.412,9.057-4.474
			c1.779-1.365,3.436-3.046,4.131-5.178c0.695-2.132,0.182-4.78-1.67-6.044c-2.215-1.512-5.365-0.501-7.313,1.342
			c-4.235,4.008-4.394,10.935-2.069,16.282c1.855,4.265,5.623,8.182,10.272,8.3c3.303,0.084,6.411-1.793,8.59-4.277
			c2.179-2.484,3.581-5.537,4.953-8.543"/>
		<path style="fill:none;stroke:#000000;stroke-width:1.9367;stroke-linecap:round;stroke-miterlimit:10;" d="M97.311,321.079
			c2.573-1.3,4.856-3.165,6.699-5.504c0.129-0.164,0.371-0.024,0.296,0.171c-1.013,2.62-1.186,5.565-0.448,8.278"/>
	</g>
	<g>
		<path style="fill:none;stroke:#000000;stroke-width:1.9367;stroke-linecap:round;stroke-miterlimit:10;" d="M234.424,367.862
			c-6.154-6.334-9.959-14.9-10.534-23.712c-0.316-4.849,0.803-10.508,5.089-12.797c3.076-1.644,7.057-0.946,9.838,1.159
			c2.781,2.105,4.473,5.398,5.294,8.787c0.432,1.781,0.637,3.711-0.062,5.405c-0.699,1.694-2.538,3.026-4.325,2.617
			c-2.75-0.63-3.253-4.327-2.865-7.121c0.585-4.206,1.83-8.319,3.675-12.143c1.653-3.427,4.289-6.946,8.073-7.343
			c3.608-0.379,6.957,2.395,8.404,5.722c1.446,3.327,1.402,7.088,1.254,10.712c-0.058,1.416-0.141,2.884-0.8,4.139
			c-0.659,1.255-2.062,2.236-3.45,1.945c-1.345-0.282-2.233-1.664-2.387-3.029c-0.155-1.365,0.263-2.724,0.679-4.033
			c1.247-3.92,2.645-8.021,5.705-10.77c3.06-2.749,8.329-3.488,11.109-0.456c2.64,2.88,1.858,7.432,0.579,11.124
			c-3.348,9.661-9.014,18.509-16.388,25.591"/>
		<path style="fill:none;stroke:#000000;stroke-width:1.9367;stroke-linecap:round;stroke-miterlimit:10;" d="M254.485,359.323
			c-0.242,1.416-0.626,2.807-1.143,4.164c-0.207,0.543,0.321,1.062,0.861,0.846c1.212-0.484,2.54-0.678,3.839-0.542"/>
	</g>
	<g>
		<path style="fill:none;stroke:#000000;stroke-width:2.3901;stroke-linecap:round;stroke-miterlimit:10;" d="M140.813,451.962
			l4.109-3.248c0.959-0.758,2.385-0.427,2.885,0.689c0.848,1.895,1.98,3.664,3.346,5.228c0.788,0.902,2.196,0.907,2.94-0.032
			c4.521-5.704,8.695-11.683,12.491-17.893c0.811-1.328,2.793-1.139,3.371,0.305c1.832,4.574,3.41,9.25,4.725,13.999
			c0.395,1.426,2.21,1.84,3.216,0.755c7.56-8.154,12.509-14.315,18.039-23.962"/>
		<path style="fill:none;stroke:#000000;stroke-width:1.9367;stroke-linecap:round;stroke-miterlimit:10;" d="M191.348,428.866
			c2.269-0.339,4.394-1.558,5.767-3.194c0.063-0.075,0.17-0.025,0.155,0.072c-0.306,2.032,0.2,4.178,1.391,5.854"/>
	</g>
	<g>
		<path style="fill:none;stroke:#000000;stroke-width:1.9367;stroke-linecap:round;stroke-miterlimit:10;" d="M221.131,426.517
			c5.203,8.84,11.66,16.939,19.111,23.987c1.353,1.28,3.566,0.228,3.397-1.627l-1.867-20.452c-0.155-1.702,1.751-2.808,3.152-1.828
			l22.788,15.947c1.45,1.014,3.4-0.204,3.129-1.952c-2.694-17.34-2.741-35.105,0.472-52.76"/>
		<g>
			<path style="fill:none;stroke:#000000;stroke-width:1.9367;stroke-linecap:round;stroke-miterlimit:10;" d="M271.081,386.248
				c1.378,3.35,2.757,6.7,4.135,10.05"/>
			<path style="fill:none;stroke:#000000;stroke-width:1.9367;stroke-linecap:round;stroke-miterlimit:10;" d="M270.533,386.756
				c-1.903,3.082-3.806,6.165-5.709,9.247"/>
		</g>
	</g>
	<g>
		<path style="fill:none;stroke:#000000;stroke-width:1.9367;stroke-linecap:round;stroke-miterlimit:10;" d="M311.877,442.711
			c-0.514-1.344-1.027-2.689-1.541-4.033"/>
		<path style="fill:none;stroke:#000000;stroke-width:1.9367;stroke-linecap:round;stroke-miterlimit:10;" d="M309.089,434.356
			c-0.26-1.517-0.519-3.034-0.779-4.551"/>
		<path style="fill:none;stroke:#000000;stroke-width:1.9367;stroke-linecap:round;stroke-miterlimit:10;" d="M308.298,424.152
			c-0.062-1.904-0.125-3.808-0.187-5.712"/>
		<path style="fill:none;stroke:#000000;stroke-width:1.9367;stroke-linecap:round;stroke-miterlimit:10;" d="M308.497,413.898
			c0.135-2.291,0.27-4.582,0.405-6.873"/>
		<path style="fill:none;stroke:#000000;stroke-width:1.9367;stroke-linecap:round;stroke-miterlimit:10;" d="M309.619,401.613
			c0.039-2.363,0.676-4.714,1.836-6.773"/>
		<path style="fill:none;stroke:#000000;stroke-width:1.9367;stroke-linecap:round;stroke-miterlimit:10;" d="M313.232,390.396
			c1.123-1.953,2.246-3.905,3.369-5.858"/>
		<path style="fill:none;stroke:#000000;stroke-width:1.9367;stroke-linecap:round;stroke-miterlimit:10;" d="M319.781,380.368
			c1.566-1.541,3.133-3.082,4.699-4.624"/>
		<path style="fill:none;stroke:#000000;stroke-width:1.9367;stroke-linecap:round;stroke-miterlimit:10;" d="M329.514,372.988
			c1.459-0.28,2.918-0.559,4.377-0.839"/>
		<path style="fill:none;stroke:#000000;stroke-width:1.9367;stroke-linecap:round;stroke-miterlimit:10;" d="M340.181,372.55
			c1.801,0.617,3.603,1.233,5.404,1.85"/>
		<path style="fill:none;stroke:#000000;stroke-width:1.9367;stroke-linecap:round;stroke-miterlimit:10;" d="M349.466,377.286
			c0.904,1.153,1.807,2.307,2.711,3.46"/>
		<path style="fill:none;stroke:#000000;stroke-width:1.9367;stroke-linecap:round;stroke-miterlimit:10;" d="M355.162,386.248
			c0.761,1.949,1.522,3.897,2.284,5.846"/>
		<path style="fill:none;stroke:#000000;stroke-width:1.9367;stroke-linecap:round;stroke-miterlimit:10;" d="M358.049,397.3
			c0.112,1.655,0.224,3.31,0.336,4.966"/>
		<path style="fill:none;stroke:#000000;stroke-width:1.9367;stroke-linecap:round;stroke-miterlimit:10;" d="M358.507,407.188
			c-0.087,1.541-0.175,3.082-0.263,4.622"/>
		<path style="fill:none;stroke:#000000;stroke-width:1.9367;stroke-linecap:round;stroke-miterlimit:10;" d="M358.36,415.218
			c-0.093,1.273-0.186,2.545-0.279,3.818"/>
		<path style="fill:none;stroke:#000000;stroke-width:1.9367;stroke-linecap:round;stroke-miterlimit:10;" d="M357.913,423.633
			c-0.216,1.441-0.432,2.882-0.647,4.322"/>
		<path style="fill:none;stroke:#000000;stroke-width:1.9367;stroke-linecap:round;stroke-miterlimit:10;" d="M356.557,432.799
			c-0.178,0.959-0.356,1.917-0.534,2.876"/>
		<path style="fill:none;stroke:#000000;stroke-width:1.9367;stroke-linecap:round;stroke-miterlimit:10;" d="M355.496,438.953
			c-0.173,1.227-0.346,2.454-0.518,3.68"/>
		<path style="fill:none;stroke:#000000;stroke-width:1.9367;stroke-linecap:round;stroke-miterlimit:10;" d="M350.672,441.774
			c1.012,1.929,2.024,3.859,3.322,5.67c1.893-1.56,3.786-3.12,5.679-4.68"/>
	</g>
	<path style="fill:none;stroke:#000000;stroke-width:1.9367;stroke-linecap:round;stroke-miterlimit:10;" d="M479.783,328.852
		c32.378-17.874,70.628-24.867,107.242-19.701c1.113,0.157,1.25,1.717,0.18,2.064l-40.891,13.281
		c-1.165,0.379-0.865,2.104,0.36,2.066c17.29-0.528,34.58-1.056,51.869-1.584"/>
	<g>
		<path style="fill:none;stroke:#000000;stroke-width:2.3637;stroke-linecap:round;stroke-miterlimit:10;" d="M578.091,357.828
			c2.257-0.576,4.848-2.085,7.136-3.99c-0.062,1.865,0.187,3.521,0.734,4.882"/>
		<path style="fill:none;stroke:#000000;stroke-width:1.9367;stroke-linecap:round;stroke-miterlimit:10;" d="M489.624,380.562
			c2.362-6.462,6.731-12.174,12.349-16.146c2.04-1.443,4.545-2.732,7.069-0.887c0.621,0.454,1.128,1.06,1.497,1.734
			c1.29,2.356,1.075,5.013,0.829,7.573c-0.392,4.085-0.861,8.238-2.499,12.001c-1.065,2.447-2.708,4.732-4.815,6.333
			c-1.218,0.926-2.836-0.487-2.102-1.829c2.829-5.174,7.381-9.409,12.789-11.776c7.569-3.313,16.15-2.953,24.411-3.094
			c8.622-0.147,17.34-0.928,25.481-3.771c8.141-2.843,15.724-7.918,20.314-15.218"/>
	</g>
	<g>
		<path style="fill:none;stroke:#000000;stroke-width:1.9367;stroke-linecap:round;stroke-miterlimit:10;" d="M494.837,461.635
			c16.297-10.672,33.49-22.395,40.951-40.39c1.504-3.627,2.578-7.601,1.874-11.464c-0.704-3.863-3.581-7.537-7.462-8.135
			c-3.275-0.504-6.603,1.27-8.663,3.866c-4.882,6.15-2.863,15.799,2.687,21.354c5.55,5.555,13.616,7.771,21.413,8.697
			c7.797,0.926,15.753,0.79,23.383,2.647c7.63,1.856,15.2,6.176,18.426,13.335"/>
		<path style="fill:none;stroke:#000000;stroke-width:1.9367;stroke-linecap:round;stroke-miterlimit:10;" d="M581.683,448.763
			c1.945,1.282,4.073,2.285,6.299,2.97"/>
		<path style="fill:none;stroke:#000000;stroke-width:1.9367;stroke-linecap:round;stroke-miterlimit:10;" d="M588.621,446.54
			c-0.052,1.751-0.406,3.492-1.041,5.125"/>
	</g>
	<g>
		<path style="fill:none;stroke:#000000;stroke-width:1.9367;stroke-linecap:round;stroke-miterlimit:10;" d="M551.096,119.526
			c-0.884,9.33-1.294,20.043,5.413,26.589c6.168,6.019,15.851,5.997,24.46,5.59c5.028-0.238,10.108-0.483,14.951-1.855
			c4.843-1.372,9.499-3.994,12.374-8.126c5.465-7.855,3.191-18.528,0.42-27.687"/>
		<path style="fill:none;stroke:#000000;stroke-width:1.9367;stroke-linecap:round;stroke-miterlimit:10;" d="M605.392,122.366
			c1.396-2.259,2.228-4.858,2.552-7.495c0.114-0.925,1.259-1.262,1.832-0.526c1.996,2.568,4.903,4.436,8.093,5.096"/>
	</g>
	<g>
		<path style="fill:none;stroke:#000000;stroke-width:1.9367;stroke-linecap:round;stroke-miterlimit:10;" d="M551.095,88.87
			c-4.484-12.03-2.955-26.519,5.259-36.385c8.214-9.866,23.3-13.894,34.738-8.064c11.438,5.83,16.898,21.775,10.24,32.752
			c-2.67,4.402-8.112,7.964-12.839,5.923c-3.828-1.653-5.478-6.242-5.704-10.406c-0.571-10.512,6.122-21.222,16.078-24.643
			c9.956-3.422,22.251,1.336,26.701,10.877s-0.296,22.486-10.11,26.296"/>
		<path style="fill:none;stroke:#000000;stroke-width:1.9367;stroke-linecap:round;stroke-miterlimit:10;" d="M616.113,80.262
			c-0.319,1.377-0.884,2.692-1.665,3.897c-0.956,1.474,0.001,3.391,1.752,3.537c1.263,0.105,2.515,0.334,3.732,0.687"/>
	</g>
	<g>
		<path style="fill:none;stroke:#000000;stroke-width:1.9367;stroke-linecap:round;stroke-miterlimit:10;" d="M427.771,304.201
			c-17.909,10.608-38.127,15.926-58.839,17.987"/>
		<path style="fill:none;stroke:#000000;stroke-width:1.9367;stroke-linecap:round;stroke-miterlimit:10;" d="M435.555,314.576
			c-18.9,12.449-40.51,21.263-62.591,26.225"/>
		<path style="fill:none;stroke:#000000;stroke-width:1.9367;stroke-linecap:round;stroke-miterlimit:10;" d="M369.275,322.976
			c0.672,5.979,1.908,11.954,3.689,17.825"/>
		<path style="fill:none;stroke:#000000;stroke-width:1.9367;stroke-linecap:round;stroke-miterlimit:10;" d="M437.711,315.985
			c-3.346-4.325-6.496-8.827-9.508-13.498c-1.739-2.695-0.258-6.356,2.88-7.022c4.432-0.941,9.05-1.084,13.557-0.393
			c1.802,0.276,3.744,0.778,4.861,2.223c1.146,1.482,1.093,3.528,0.819,5.356c-0.697,4.651-2.514,9.106-5.056,12.992
			C443.52,318.309,439.66,318.504,437.711,315.985z"/>
		<path style="fill:none;stroke:#000000;stroke-width:1.9367;stroke-linecap:round;stroke-miterlimit:10;" d="M375.627,321.402
			c-1.418,2.849-3.611,7.253-5.029,10.101"/>
		<path style="fill:none;stroke:#000000;stroke-width:1.9367;stroke-linecap:round;stroke-miterlimit:10;" d="M380.911,320.606
			c-2.547,6.398-3.988,13.182-6.534,19.58"/>
		<path style="fill:none;stroke:#000000;stroke-width:1.9367;stroke-linecap:round;stroke-miterlimit:10;" d="M388.026,319.407
			c-2.342,6.11-4.97,12.813-6.862,19.076"/>
		<path style="fill:none;stroke:#000000;stroke-width:1.9367;stroke-linecap:round;stroke-miterlimit:10;" d="M394.485,318.541
			c-2.134,6.316-3.841,11.367-5.976,17.683"/>
		<path style="fill:none;stroke:#000000;stroke-width:1.9367;stroke-linecap:round;stroke-miterlimit:10;" d="M401.527,316.386
			c-1.606,6.026-2.917,10.946-4.523,16.972"/>
		<path style="fill:none;stroke:#000000;stroke-width:1.9367;stroke-linecap:round;stroke-miterlimit:10;" d="M408.506,314.022
			c-1.66,6.089-2.53,10.11-4.19,16.2"/>
		<path style="fill:none;stroke:#000000;stroke-width:1.9367;stroke-linecap:round;stroke-miterlimit:10;" d="M415.997,310.697
			c-1.482,5.703-2.965,11.406-4.447,17.109"/>
		<path style="fill:none;stroke:#000000;stroke-width:1.9367;stroke-linecap:round;stroke-miterlimit:10;" d="M422.05,307.427
			c-1.318,5.89-2.942,11.711-4.863,17.433"/>
		<path style="fill:none;stroke:#000000;stroke-width:1.9367;stroke-linecap:round;stroke-miterlimit:10;" d="M427.103,304.974
			c-1.211,5.83-2.709,11.601-4.488,17.283"/>
		<path style="fill:none;stroke:#000000;stroke-width:1.9367;stroke-linecap:round;stroke-miterlimit:10;" d="M430.911,307.211
			c-0.564,3.232-1.384,7.934-1.948,11.166"/>
	</g>
	<g>
		<path style="fill:none;stroke:#000000;stroke-width:1.9367;stroke-linecap:round;stroke-miterlimit:10;" d="M525.455,188.502
			c25.463-1.141,50.926-2.283,76.388-3.424"/>
		<path style="fill:none;stroke:#000000;stroke-width:1.9367;stroke-linecap:round;stroke-miterlimit:10;" d="M525.302,207.872
			c26.607-0.755,53.214-1.511,79.821-2.266"/>
		<path style="fill:none;stroke:#000000;stroke-width:1.9367;stroke-linecap:round;stroke-miterlimit:10;" d="M592.856,180.83
			c2.429,1.987,5.344,3.375,8.416,4.471c-2.757,0.598-5.217,2.448-6.556,4.931"/>
		<path style="fill:none;stroke:#000000;stroke-width:1.9367;stroke-linecap:round;stroke-miterlimit:10;" d="M533.719,203.282
			c-2.777,1.476-5.554,2.953-8.331,4.429c3.335,1.416,6.35,3.581,8.757,6.29"/>
	</g>
	<g>
		<path style="fill:none;stroke:#000000;stroke-width:1.9367;stroke-linecap:round;stroke-miterlimit:10;" d="M629.475,443.217
			c-4.681,0.134-8.875-4.082-9.259-8.749c-0.385-4.667,2.65-9.257,6.871-11.286c4.22-2.029,9.354-1.68,13.581,0.334
			c8.627,4.111,13.047,15.356,9.526,24.24c-1.665,4.203-6.303,8.112-10.377,6.151c-4.105-1.977-3.936-7.893-2.508-12.22
			c1.876-5.686,4.978-11.168,9.82-14.691c4.841-3.523,11.634-4.732,16.937-1.952c4.241,2.223,7.029,6.722,7.816,11.446
			c0.787,4.723-0.263,9.622-2.277,13.966c-1.109,2.393-2.763,4.848-5.322,5.486c-3.788,0.944-7.484-3.068-7.289-6.967
			s3.2-7.168,6.633-9.027c3.433-1.859,7.328-2.635,11.043-3.835c3.715-1.201,8.471-2.283,10.678-5.503"/>
		<path style="fill:none;stroke:#000000;stroke-width:1.9367;stroke-linecap:round;stroke-miterlimit:10;" d="M676.741,430.421
			c2.922,0.402,7.379,0.357,10.287-0.132c-2.285,2.936-5.018,6.656-4.983,10.376"/>
	</g>
	<g>
		<path style="fill:none;stroke:#000000;stroke-width:1.9367;stroke-linecap:round;stroke-miterlimit:10;" d="M648.495,140.784
			c0.971-3.422,2.14-6.96,4.68-9.449c2.54-2.49,6.859-3.523,9.686-1.364c2.478,1.893,2.97,5.407,2.888,8.525
			c-0.06,2.259-0.334,4.575-1.392,6.572c-1.058,1.997-3.647,5.282-5.293,3.735c-2.936-2.759,2.725-7.702,6.238-9.674
			c3.513-1.972,7.649-2.503,11.676-2.62c4.027-0.117,8.08,0.142,12.07-0.412c7.706-1.069,14.929-5.286,19.648-11.471"/>
		<path style="fill:none;stroke:#000000;stroke-width:1.9367;stroke-linecap:round;stroke-miterlimit:10;" d="M697.659,128.763
			c3.829-0.478,7.543-1.848,10.765-3.971c-1.641,3.286-2.496,6.961-2.473,10.634"/>
	</g>
	<g>
		<path style="fill:none;stroke:#000000;stroke-width:1.9367;stroke-linecap:round;stroke-miterlimit:10;" d="M422.937,365.729
			c6.206-0.988,12.344,3.301,15.263,8.866s3.231,12.116,2.944,18.393c-0.098,2.141-0.28,4.358-1.323,6.23
			c-1.043,1.872-3.181,3.301-5.278,2.857c-3.801-0.805-4.083-6.298-2.406-9.804c2.271-4.748,6.971-8.718,12.23-8.532
			c7.216,0.256,12.156,8.284,11.708,15.49s-4.699,13.555-8.973,19.375c-4.274,5.82-8.851,11.81-10.135,18.915
			c-0.641,3.546-0.375,7.36,1.376,10.509c1.752,3.149,5.156,5.491,8.758,5.381c4.405-0.134,8.064-3.816,9.577-7.955
			s1.329-8.679,1.125-13.082"/>
		<path style="fill:none;stroke:#000000;stroke-width:1.9367;stroke-linecap:round;stroke-miterlimit:10;" d="M452.717,439.038
			c2.091-2.762,3.603-5.96,4.417-9.327c0.082-0.339,0.536-0.372,0.667-0.049c1.235,3.037,3.111,5.813,5.474,8.087"/>
	</g>
	<g>
		<path style="fill:none;stroke:#000000;stroke-width:1.9367;stroke-linecap:round;stroke-miterlimit:10;" d="M652.722,177.53
			c5.844,7.425,11.687,14.85,17.531,22.275"/>
		<path style="fill:none;stroke:#000000;stroke-width:1.9367;stroke-linecap:round;stroke-miterlimit:10;" d="M681.229,198.408
			c4.906-7.106,9.813-14.212,14.719-21.318"/>
		<path style="fill:none;stroke:#000000;stroke-width:1.9367;stroke-linecap:round;stroke-miterlimit:10;" d="M671.647,206.609
			c-5.483,7.855-10.965,15.71-16.448,23.565"/>
		<path style="fill:none;stroke:#000000;stroke-width:1.9367;stroke-linecap:round;stroke-miterlimit:10;" d="M681.382,204.967
			c6.183,6.66,12.366,13.319,18.549,19.979"/>
		<path style="fill:none;stroke:#000000;stroke-width:1.9367;stroke-linecap:round;stroke-miterlimit:10;" d="M695.61,177.377
			c-1.766,1.78-4.02,3.07-6.448,3.692"/>
		<path style="fill:none;stroke:#000000;stroke-width:1.9367;stroke-linecap:round;stroke-miterlimit:10;" d="M652.728,177.807
			c0.69,2.117,0.956,4.33,0.784,6.522"/>
		<path style="fill:none;stroke:#000000;stroke-width:1.9367;stroke-linecap:round;stroke-miterlimit:10;" d="M658.323,179.63
			c-2.008-0.283-3.965-0.925-5.752-1.884"/>
		<path style="fill:none;stroke:#000000;stroke-width:1.9367;stroke-linecap:round;stroke-miterlimit:10;" d="M655.322,229.723
			c0.58-2.219,0.787-4.536,0.61-6.823"/>
		<path style="fill:none;stroke:#000000;stroke-width:1.9367;stroke-linecap:round;stroke-miterlimit:10;" d="M699.706,224.704
			c-1.959-0.382-3.976-0.467-5.961-0.252"/>
		<path style="fill:none;stroke:#000000;stroke-width:1.9367;stroke-linecap:round;stroke-miterlimit:10;" d="M695.963,177.741
			c-1.361,2.151-1.686,4.928-0.858,7.335"/>
		<path style="fill:none;stroke:#000000;stroke-width:1.9367;stroke-linecap:round;stroke-miterlimit:10;" d="M700.001,217.409
			c-0.983,2.328-0.978,5.056,0.014,7.38"/>
		<path style="fill:none;stroke:#000000;stroke-width:1.9367;stroke-linecap:round;stroke-miterlimit:10;" d="M655.59,230.158
			c1.678-1.506,4.048-2.205,6.274-1.85"/>
	</g>
	<g>
		<path style="fill:none;stroke:#000000;stroke-width:1.9367;stroke-linecap:round;stroke-miterlimit:10;" d="M513.418,262.364
			c-1.405-7.224,4.832-14.935,12.19-15.069c7.97-0.146,14.952,8.639,12.286,16.418c-0.453,1.322-1.711,2.3-3.097,2.118
			c-2.368-0.31-2.54-3.486-1.768-5.617c2.574-7.105,10.101-12.085,17.646-11.677c7.546,0.408,14.491,6.171,16.285,13.511
			c0.393,1.61,0.545,3.371-0.159,4.872c-0.007,0.015-0.014,0.03-0.021,0.045c-1.045,2.151-4.312,1.168-4.172-1.219
			c0.323-5.482,3.472-10.8,8.267-13.526c5.729-3.257,13.434-2.602,18.531,1.574c5.097,4.176,7.254,11.602,5.188,17.859"/>
		<path style="fill:none;stroke:#000000;stroke-width:1.9367;stroke-linecap:round;stroke-miterlimit:10;" d="M587.2,261.275
			c2.627,2.783,4.819,5.975,6.539,9.374c0.687,1.357,2.663,1.129,3.101-0.328c1.267-4.212,3.481-8.142,6.456-11.383"/>
	</g>
	<g>
		<path style="fill:none;stroke:#000000;stroke-width:1.9367;stroke-linecap:round;stroke-miterlimit:10;" d="M32.714,454.957
			c1.435-1.309,2.87-2.618,4.305-3.927"/>
		<path style="fill:none;stroke:#000000;stroke-width:1.9367;stroke-linecap:round;stroke-miterlimit:10;" d="M41.331,448.632
			c1.74-1.021,3.479-2.042,5.219-3.063"/>
		<path style="fill:none;stroke:#000000;stroke-width:1.9367;stroke-linecap:round;stroke-miterlimit:10;" d="M51.444,443.583
			c1.927-0.67,3.855-1.34,5.782-2.011"/>
		<path style="fill:none;stroke:#000000;stroke-width:1.9367;stroke-linecap:round;stroke-miterlimit:10;" d="M62.766,441.135
			c1.716-0.166,3.432-0.332,5.148-0.498"/>
		<path style="fill:none;stroke:#000000;stroke-width:1.9367;stroke-linecap:round;stroke-miterlimit:10;" d="M74.018,441.251
			c1.524,0.207,3.049,0.414,4.573,0.621"/>
		<path style="fill:none;stroke:#000000;stroke-width:1.9367;stroke-linecap:round;stroke-miterlimit:10;" d="M84.992,444.223
			c1.601,0.407,3.202,0.813,4.803,1.22"/>
		<path style="fill:none;stroke:#000000;stroke-width:1.9367;stroke-linecap:round;stroke-miterlimit:10;" d="M94.581,447.305
			c1.555,0.883,3.11,1.765,4.665,2.648"/>
		<path style="fill:none;stroke:#000000;stroke-width:1.9367;stroke-linecap:round;stroke-miterlimit:10;" d="M102.919,452.77
			c1.273,0.973,2.545,1.947,3.818,2.92"/>
		<path style="fill:none;stroke:#000000;stroke-width:1.9367;stroke-linecap:round;stroke-miterlimit:10;" d="M99.34,458.728
			c3.341,0.117,6.665,0.69,9.861,1.64c1.939,0.576,3.605-1.371,2.743-3.202c-1.681-3.566-2.648-7.47-2.792-11.41"/>
	</g>
	<path style="fill:none;stroke:#000000;stroke-width:1.9367;stroke-linecap:round;stroke-miterlimit:10;" d="M560.056,348.097"/>
	<path style="fill:none;stroke:#000000;stroke-width:1.9367;stroke-linecap:round;stroke-miterlimit:10;" d="M598.198,324.801
		c-3.03,0.125-6.103,0.246-9.058-0.435c-2.955-0.682-5.828-2.276-7.389-4.876"/>
	<path style="fill:none;stroke:#000000;stroke-width:1.9367;stroke-linecap:round;stroke-miterlimit:10;" d="M598.204,325.107
		c-3.033-0.007-6.108-0.009-9.034,0.788c-2.926,0.796-5.735,2.501-7.193,5.16"/>
	<path style="fill:none;stroke:#000000;stroke-width:1.9367;stroke-linecap:round;stroke-miterlimit:10;" d="M635.516,321.405
		c17.784-2.46,35.679-4.11,53.499-4.728c0.223,3.119,0.447,6.238,0.429,9.514c-14.605,1.101-29.21,2.202-43.641,3.123
		c-0.454,2.392-0.097,4.93,0.998,7.103c13.992-1.404,27.985-2.808,41.977-4.212"/>
	<path style="fill:none;stroke:#000000;stroke-width:1.9367;stroke-linecap:round;stroke-miterlimit:10;" d="M683.93,329.877
		c1.416,1.243,3.181,2.085,4.857,2.415c-1.654,0.839-3.052,2.177-3.962,3.794"/>
	<path style="fill:none;stroke:#000000;stroke-width:1.9367;stroke-linecap:round;stroke-miterlimit:10;" d="M632.585,318.8
		c0.898,1.191,2.208,2.064,3.604,2.448c-1.465,0.594-2.585,1.969-2.871,3.524"/>
	<g>
		<path style="fill:none;stroke:#000000;stroke-width:1.9367;stroke-linecap:round;stroke-miterlimit:10;" d="M679.626,375.511
			c4.207-0.487,7.814-4.194,8.185-8.413c0.371-4.219-2.532-8.499-6.589-9.713c-4.273-1.279-8.906,0.675-12.378,3.475
			c-2.671,2.153-5.068,5.14-4.52,8.749c0.278,1.827,1.517,3.438,3.287,3.969c3.475,1.042,5.853-2.479,5.513-5.517
			c-0.278-2.486-1.908-4.613-3.718-6.34c-3.265-3.114-7.494-5.432-12.003-5.575c-4.509-0.143-9.226,2.232-11.064,6.352
			c-1.724,3.866-0.658,8.572,1.879,11.96c2.271,3.034,5.552,5.146,9.421,6.739c0.415,0.171,0.812-0.281,0.572-0.66
			c-1.032-1.633-1.874-3.386-2.502-5.212"/>
		<path style="fill:none;stroke:#000000;stroke-width:1.9367;stroke-linecap:round;stroke-miterlimit:10;" d="M657.249,381.662
			c-2.475-0.165-4.977,0.081-7.372,0.725"/>
	</g>
	<g>
		<path style="fill:none;stroke:#000000;stroke-width:1.9367;stroke-linecap:round;stroke-miterlimit:10;" d="M655.695,60.281
			c1.359,6.249,3.388,12.532,7.407,17.507c4.019,4.975,10.364,8.446,16.705,7.615c5.799-0.76,10.728-4.997,13.532-10.129
			c2.804-5.132,3.75-11.074,4.081-16.913"/>
		<path style="fill:none;stroke:#000000;stroke-width:1.9367;stroke-linecap:round;stroke-miterlimit:10;" d="M691.122,65.043
			c2.34-1.709,4.384-3.821,6.348-6.295c1.188,2.69,3.567,4.827,6.368,5.721"/>
	</g>
	<g>
		<g>
			<path style="fill:none;stroke:#000000;stroke-width:2.167;stroke-linecap:round;stroke-miterlimit:10;" d="M649.876,263.407
				c-0.09,3.055-0.822,5.998-2.159,8.676"/>
			<path style="fill:none;stroke:#000000;stroke-width:2.167;stroke-linecap:round;stroke-miterlimit:10;" d="M656.813,268.778
				c-2.675-1.459-5.1-3.342-7.126-5.534"/>
		</g>
		<path style="fill:none;stroke:#000000;stroke-width:1.9367;stroke-linecap:round;stroke-miterlimit:10;" d="M649.876,263.407
			c1.359,6.249,2.903,10.889,6.921,15.864c4.019,4.975,10.364,8.446,16.705,7.615c5.799-0.76,10.728-4.997,13.532-10.129
			c2.804-5.132,3.751-11.074,4.081-16.913"/>
	</g>
	<g>
		<path style="fill:none;stroke:#000000;stroke-width:1.9367;stroke-linecap:round;stroke-miterlimit:10;" d="M406.733,455.656
			c0.951-13.016-7.586-24.811-9.526-37.716c-1.012-6.727-0.201-13.579-0.287-20.382c-0.086-6.802-1.229-13.959-5.499-19.255"/>
		<path style="fill:none;stroke:#000000;stroke-width:1.9367;stroke-linecap:round;stroke-miterlimit:10;" d="M387.389,384.974
			c1.376-2.55,2.312-5.336,3.019-8.415c2.23,1.916,5.298,2.821,8.211,2.422"/>
	</g>
	<g>
		<path style="fill:none;stroke:#000000;stroke-width:1.9367;stroke-linecap:round;stroke-miterlimit:10;" d="M345.196,261.526
			l9.524-10.323c1.829-1.983,1.305-5.157-1.065-6.446c-4.138-2.25-8.283-4.504-12.449-6.769c-2.995-1.628-6.584,0.859-6.08,4.23
			c0.871,5.822,1.875,11.602,2.96,17.29C338.723,262.842,342.895,264.02,345.196,261.526z"/>
		<path style="fill:none;stroke:#000000;stroke-width:1.9367;stroke-linecap:round;stroke-miterlimit:10;" d="M335.328,243.485
			l-32.79,3.77c-2.48,0.29-4.15,2.69-3.54,5.12l3.32,13.34c0.59,2.36,3.07,3.71,5.37,2.91l30.16-10.42"/>
	</g>
</g>
</svg>
